<svg viewBox="0 0 99.6094970703125 97.9970703125" version="1.1" xmlns="http://www.w3.org/2000/svg" class="sc-iyp18k-0 bmhQzV glyph-box" style="height: 16.6898px; width: 16.9644px;"><g transform="matrix(1 0 0 1 -8.740278320312427 84.228515625)"><path d="M57.7148 13.7207C84.5215 13.7207 106.689-8.44727 106.689-35.2539C106.689-62.1094 84.5215-84.2285 57.666-84.2285C30.8594-84.2285 8.74023-62.1094 8.74023-35.2539C8.74023-8.44727 30.9082 13.7207 57.7148 13.7207ZM57.7148 7.37305C34.082 7.37305 15.0879-11.6699 15.0879-35.2539C15.0879-58.2031 33.0078-76.8555 55.7129-77.8809L55.7129-34.9121C55.7129-33.7891 55.957-32.959 56.7871-32.1289L86.084-3.36914C78.5645 3.32031 68.6035 7.37305 57.7148 7.37305ZM60.8887-38.2324L60.8887-77.7832C75.0977-76.7578 87.3047-68.7988 94.2871-57.2754ZM63.1348-33.4961L96.6309-52.6855C99.0234-47.3633 100.342-41.4551 100.391-35.2539C100.391-24.4141 96.3867-14.5996 89.7949-7.08008Z"></path></g></svg>