<svg width="26" height="22" viewBox="0 0 26 22" fill="none" xmlns="http://www.w3.org/2000/svg">
<path d="M12.644 6.13428C12.7104 5.92952 12.8294 5.79395 13.001 5.72754C13.1781 5.6556 13.3524 5.6556 13.5239 5.72754C13.6955 5.79395 13.8172 5.92952 13.8892 6.13428L15.8647 12.1191H10.6685L12.644 6.13428ZM17.6743 20.1128C17.5747 20.1128 17.4806 20.0934 17.3921 20.0547C17.3091 20.0215 17.2371 19.9689 17.1763 19.897C17.1154 19.825 17.0767 19.742 17.0601 19.6479L15.5493 12.6753L15.6987 12.7666H10.8345L10.9839 12.6753L9.47314 19.6479C9.43994 19.8084 9.35417 19.9302 9.21582 20.0132C9.07747 20.1017 8.92529 20.1322 8.75928 20.1045C8.60433 20.0713 8.47705 19.9855 8.37744 19.8472C8.28337 19.7088 8.2557 19.5594 8.29443 19.3989L9.80518 12.3931C9.86051 12.1551 9.97673 11.9587 10.1538 11.8037C10.3309 11.6432 10.5356 11.563 10.7681 11.563H15.7651C15.9976 11.563 16.2023 11.6432 16.3794 11.8037C16.562 11.9587 16.6782 12.1579 16.728 12.4014L18.2471 19.3989C18.2858 19.5871 18.236 19.7503 18.0977 19.8887C17.9593 20.0326 17.8182 20.1073 17.6743 20.1128ZM13.2583 21.8145C12.0685 21.8145 10.9313 21.6318 9.84668 21.2666C8.76758 20.9069 7.77702 20.395 6.875 19.731C5.97852 19.0669 5.19824 18.2839 4.53418 17.3818C3.87012 16.4854 3.35547 15.4976 2.99023 14.4185C2.63053 13.3338 2.45068 12.1966 2.45068 11.0068C2.45068 9.81152 2.63053 8.67432 2.99023 7.59521C3.35547 6.51611 3.87012 5.52555 4.53418 4.62354C5.19824 3.72152 5.97852 2.94124 6.875 2.28271C7.77702 1.61865 8.76758 1.104 9.84668 0.73877C10.9313 0.373535 12.0685 0.190918 13.2583 0.190918C14.4536 0.190918 15.5908 0.373535 16.6699 0.73877C17.749 1.104 18.7396 1.61865 19.6416 2.28271C20.5436 2.94124 21.3239 3.72152 21.9824 4.62354C22.6465 5.52555 23.1611 6.51611 23.5264 7.59521C23.8916 8.67432 24.0742 9.81152 24.0742 11.0068C24.0742 12.1966 23.8916 13.3338 23.5264 14.4185C23.1611 15.4976 22.6465 16.4854 21.9824 17.3818C21.3239 18.2839 20.5436 19.0669 19.6416 19.731C18.7396 20.395 17.749 20.9069 16.6699 21.2666C15.5908 21.6318 14.4536 21.8145 13.2583 21.8145ZM13.2583 20.2705C14.2821 20.2705 15.256 20.1128 16.1802 19.7974C17.1099 19.4875 17.9593 19.0475 18.7285 18.4775C19.5033 17.9131 20.1729 17.2463 20.7373 16.4771C21.3073 15.7023 21.7472 14.8529 22.0571 13.9287C22.367 13.0046 22.522 12.0306 22.522 11.0068C22.522 9.98307 22.367 9.00911 22.0571 8.08496C21.7472 7.15527 21.3073 6.30583 20.7373 5.53662C20.1729 4.76188 19.5033 4.09229 18.7285 3.52783C17.9593 2.95785 17.1099 2.5179 16.1802 2.20801C15.256 1.89811 14.2821 1.74316 13.2583 1.74316C12.2345 1.74316 11.2606 1.89811 10.3364 2.20801C9.41227 2.5179 8.56283 2.95785 7.78809 3.52783C7.01888 4.09229 6.34928 4.76188 5.7793 5.53662C5.21484 6.30583 4.7749 7.15527 4.45947 8.08496C4.14958 9.00911 3.99463 9.98307 3.99463 11.0068C3.99463 12.0306 4.14958 13.0046 4.45947 13.9287C4.7749 14.8529 5.21484 15.7023 5.7793 16.4771C6.34928 17.2463 7.01888 17.9131 7.78809 18.4775C8.56283 19.0475 9.41227 19.4875 10.3364 19.7974C11.2606 20.1128 12.2345 20.2705 13.2583 20.2705Z" fill="#007AFF"/>
</svg>
