<svg width="37" height="22" viewBox="0 0 37 22" fill="none" xmlns="http://www.w3.org/2000/svg">
<path d="M5.84717 20.7271C4.90088 20.7271 4.17041 20.4753 3.65576 19.9717C3.14665 19.4736 2.89209 18.7515 2.89209 17.8052V9.09766C2.89209 8.15137 3.14665 7.4292 3.65576 6.93115C4.17041 6.42757 4.90088 6.17578 5.84717 6.17578H24.8975L23.5195 7.55371H5.83887C5.36296 7.55371 4.99772 7.68099 4.74316 7.93555C4.48861 8.1901 4.36133 8.55534 4.36133 9.03125V17.8716C4.36133 18.342 4.48861 18.7044 4.74316 18.959C4.99772 19.2191 5.36296 19.3491 5.83887 19.3491H26.7568C27.2327 19.3491 27.598 19.2191 27.8525 18.959C28.1071 18.7044 28.2344 18.342 28.2344 17.8716V10.2266L29.7036 8.75732V17.8052C29.7036 18.7515 29.4491 19.4736 28.9399 19.9717C28.4308 20.4753 27.7031 20.7271 26.7568 20.7271H5.84717ZM21.0459 13.9868C20.9518 14.0311 20.866 14.0117 20.7886 13.9287C20.7111 13.8457 20.6945 13.7599 20.7388 13.6714L21.7598 11.6294L31.0566 2.34912L32.4429 3.71875L23.1377 13.0156L21.0459 13.9868ZM33.1982 2.96338L31.8203 1.56885L32.5923 0.805176C32.7694 0.628092 32.9686 0.534017 33.1899 0.522949C33.4168 0.506348 33.6133 0.578288 33.7793 0.73877L33.9868 0.95459C34.175 1.13721 34.2663 1.33919 34.2607 1.56055C34.2552 1.7819 34.1584 1.98942 33.9702 2.18311L33.1982 2.96338ZM8.43701 14.8999C8.03304 14.8999 7.68717 14.7588 7.39941 14.4766C7.11719 14.1943 6.97607 13.8512 6.97607 13.4473C6.97607 13.0488 7.11719 12.7085 7.39941 12.4263C7.68717 12.144 8.03304 12.0029 8.43701 12.0029C8.83545 12.0029 9.17578 12.144 9.45801 12.4263C9.74023 12.7085 9.88135 13.0488 9.88135 13.4473C9.88135 13.8512 9.74023 14.1943 9.45801 14.4766C9.17578 14.7588 8.83545 14.8999 8.43701 14.8999ZM12.936 14.8999C12.5376 14.8999 12.1945 14.7588 11.9067 14.4766C11.6245 14.1943 11.4834 13.8512 11.4834 13.4473C11.4834 13.0488 11.6245 12.7085 11.9067 12.4263C12.1945 12.144 12.5376 12.0029 12.936 12.0029C13.3345 12.0029 13.6748 12.144 13.957 12.4263C14.2393 12.7085 14.3804 13.0488 14.3804 13.4473C14.3804 13.8512 14.2393 14.1943 13.957 14.4766C13.6748 14.7588 13.3345 14.8999 12.936 14.8999ZM17.4434 14.8999C17.0394 14.8999 16.6963 14.7588 16.4141 14.4766C16.1318 14.1943 15.9907 13.8512 15.9907 13.4473C15.9907 13.0488 16.1318 12.7085 16.4141 12.4263C16.6963 12.144 17.0394 12.0029 17.4434 12.0029C17.8418 12.0029 18.1821 12.144 18.4644 12.4263C18.7521 12.7085 18.896 13.0488 18.896 13.4473C18.896 13.8512 18.7521 14.1943 18.4644 14.4766C18.1821 14.7588 17.8418 14.8999 17.4434 14.8999Z" fill="#007AFF"/>
</svg>
