<svg viewBox="0 0 114.78955078125 110.8876953125" version="1.1" xmlns="http://www.w3.org/2000/svg" class="sc-iyp18k-0 bmhQzV glyph-box" style="height: 18.8852px; width: 19.5497px;"><g transform="matrix(1 0 0 1 -8.740278320312427 90.673828125)"><path d="M8.74023-51.2207C8.74023-32.373 21.9727-16.6016 39.6484-12.6953L39.6484 1.31836C39.6484 10.791 44.4824 15.5762 54.0527 15.5762L103.076 15.5762C112.598 15.5762 117.48 10.791 117.48 1.31836L117.48-47.998C117.48-57.4219 112.598-62.2559 103.076-62.2559L86.084-62.2559C81.3477-78.7109 66.1133-90.6738 48.1934-90.6738C26.3672-90.6738 8.74023-73.0469 8.74023-51.2207ZM14.4531-51.2207C14.4531-69.873 29.541-84.9609 48.1934-84.9609C62.9395-84.9609 75.4883-75.4395 80.0293-62.2559L54.0527-62.2559C44.4824-62.2559 39.6484-57.4219 39.6484-47.998L39.6484-18.6523C25.1465-22.4121 14.4531-35.5469 14.4531-51.2207ZM54.1504 9.57031C48.6328 9.57031 45.6543 6.64062 45.6543 1.02539L45.6543-47.6562C45.6543-53.3203 48.6328-56.2012 54.1504-56.2012L102.979-56.2012C108.447-56.2012 111.426-53.3203 111.426-47.6562L111.426 1.02539C111.426 6.64062 108.447 9.57031 102.979 9.57031Z"></path></g></svg>