<svg version="1.1" xmlns="http://www.w3.org/2000/svg" xmlns:xlink="http://www.w3.org/1999/xlink" width="114.78955078125px" height="110.8876953125px" viewBox="0,0,256,247.29688"><g fill="#0099ff" fill-rule="nonzero" stroke="none" stroke-width="1" stroke-linecap="butt" stroke-linejoin="miter" stroke-miterlimit="10" stroke-dasharray="" stroke-dashoffset="0" font-family="none" font-weight="none" font-size="none" text-anchor="none" style="mix-blend-mode: normal"><g transform="translate(6.74612,5.17069) scale(2.23017,2.23017)"><g transform="translate(-8.74028,90.67383)"><path d="M8.74023,-51.2207c0,18.8477 13.23247,34.6191 30.90817,38.5254v14.01366c0,9.47264 4.834,14.25784 14.4043,14.25784h49.0233c9.522,0 14.404,-4.7852 14.404,-14.25784v-49.31636c0,-9.4239 -4.882,-14.2579 -14.404,-14.2579h-16.992c-4.7363,-16.455 -19.9707,-28.4179 -37.8906,-28.4179c-21.8262,0 -39.45317,17.6269 -39.45317,39.4531zM14.4531,-51.2207c0,-18.6523 15.0879,-33.7402 33.7403,-33.7402c14.7461,0 27.2949,9.5214 31.8359,22.705h-25.9766c-9.5703,0 -14.4043,4.834 -14.4043,14.2579v29.3457c-14.5019,-3.7598 -25.1953,-16.8946 -25.1953,-32.5684zM54.1504,9.57031c-5.5176,0 -8.4961,-2.92969 -8.4961,-8.54492v-48.68159c0,-5.6641 2.9785,-8.545 8.4961,-8.545h48.8286c5.468,0 8.447,2.8809 8.447,8.545v48.68159c0,5.61523 -2.979,8.54492 -8.447,8.54492z"></path></g></g></g></svg>