<svg width="29" height="21" viewBox="0 0 29 21" fill="none" xmlns="http://www.w3.org/2000/svg">
<path d="M3.37598 20.644C2.30794 20.644 1.50277 20.3757 0.960449 19.8389C0.418132 19.3021 0.146973 18.5052 0.146973 17.4482V4.2998C0.146973 3.28711 0.390462 2.52897 0.877441 2.02539C1.36995 1.51628 2.06999 1.26172 2.97754 1.26172H6.02393C6.37809 1.26172 6.68245 1.28662 6.93701 1.33643C7.19157 1.3807 7.42399 1.46094 7.63428 1.57715C7.8501 1.69336 8.07422 1.85384 8.30664 2.05859L8.9375 2.58984C9.21419 2.83333 9.47982 3.00212 9.73438 3.09619C9.98893 3.19027 10.3099 3.2373 10.6973 3.2373H17.4375C17.3102 3.48633 17.2078 3.72982 17.1304 3.96777C17.0529 4.2002 16.9865 4.44645 16.9312 4.70654H10.332C9.97786 4.70654 9.67074 4.68164 9.41064 4.63184C9.15055 4.58203 8.9126 4.50179 8.69678 4.39111C8.48096 4.2749 8.2596 4.11719 8.03271 3.91797L7.40186 3.38672C7.2137 3.2207 7.03385 3.09066 6.8623 2.99658C6.69629 2.89697 6.51644 2.8278 6.32275 2.78906C6.1346 2.74479 5.91325 2.72266 5.65869 2.72266H3.26807C2.73128 2.72266 2.32178 2.861 2.03955 3.1377C1.75732 3.41439 1.61621 3.83219 1.61621 4.39111V17.3652C1.61621 17.9629 1.76839 18.4139 2.07275 18.7183C2.38265 19.0226 2.82812 19.1748 3.40918 19.1748H21.0068C21.5713 19.1748 22.0085 19.0226 22.3184 18.7183C22.6338 18.4139 22.7915 17.9657 22.7915 17.3735V12.8911C23.035 12.9243 23.2923 12.9409 23.5635 12.9409C23.8402 12.9354 24.0726 12.9188 24.2607 12.8911V17.4482C24.2607 18.4997 24.0007 19.2938 23.4805 19.8306C22.9658 20.3729 22.2326 20.644 21.2808 20.644H3.37598ZM1.03516 8.64111V7.25488H16.8315C16.8592 7.49837 16.9007 7.73633 16.9561 7.96875C17.0169 8.19564 17.0889 8.41976 17.1719 8.64111H1.03516ZM23.4556 11.6045C22.7196 11.6045 22.0278 11.4661 21.3804 11.1895C20.7329 10.9128 20.1602 10.5282 19.6621 10.0356C19.1696 9.5376 18.7822 8.96484 18.5 8.31738C18.2233 7.66992 18.085 6.97819 18.085 6.24219C18.085 5.50618 18.2233 4.81445 18.5 4.16699C18.7822 3.51953 19.1696 2.94954 19.6621 2.45703C20.1602 1.95898 20.7329 1.57161 21.3804 1.29492C22.0278 1.0127 22.7196 0.871582 23.4556 0.871582C24.1916 0.871582 24.8833 1.0127 25.5308 1.29492C26.1782 1.57161 26.7482 1.95622 27.2407 2.44873C27.7332 2.94124 28.1178 3.514 28.3945 4.16699C28.6768 4.81445 28.8179 5.50618 28.8179 6.24219C28.8179 6.97266 28.6768 7.66162 28.3945 8.30908C28.1123 8.95654 27.7222 9.5293 27.2241 10.0273C26.7316 10.5199 26.1616 10.9072 25.5142 11.1895C24.8667 11.4661 24.1805 11.6045 23.4556 11.6045ZM23.4473 9.62891C23.6354 9.62891 23.7821 9.57357 23.8872 9.46289C23.9979 9.35221 24.0532 9.20557 24.0532 9.02295V6.83984H26.228C26.4106 6.83984 26.5573 6.78727 26.668 6.68213C26.7786 6.57145 26.834 6.4248 26.834 6.24219C26.834 6.05404 26.7786 5.90739 26.668 5.80225C26.5573 5.69157 26.4106 5.63623 26.228 5.63623H24.0532V3.46143C24.0532 3.28434 23.9979 3.14046 23.8872 3.02979C23.7821 2.91357 23.6354 2.85547 23.4473 2.85547C23.2646 2.85547 23.118 2.91357 23.0073 3.02979C22.9022 3.14046 22.8496 3.28434 22.8496 3.46143V5.63623H20.6665C20.4894 5.63623 20.3428 5.69157 20.2266 5.80225C20.1159 5.90739 20.0605 6.05404 20.0605 6.24219C20.0605 6.4248 20.1159 6.57145 20.2266 6.68213C20.3428 6.78727 20.4894 6.83984 20.6665 6.83984H22.8496V9.02295C22.8496 9.20557 22.9022 9.35221 23.0073 9.46289C23.118 9.57357 23.2646 9.62891 23.4473 9.62891Z" fill="#007AFF"/>
</svg>
