<svg version="1.1" xmlns="http://www.w3.org/2000/svg" xmlns:xlink="http://www.w3.org/1999/xlink" width="99.6099853515625px" height="99.6572265625px" viewBox="0,0,255.875,256"><g fill=&quot;#HEX_COLOR&quot fill-rule="nonzero" stroke="none" stroke-width="1" stroke-linecap="butt" stroke-linejoin="miter" stroke-miterlimit="10" stroke-dasharray="" stroke-dashoffset="0" font-family="none" font-weight="none" font-size="none" text-anchor="none" style="mix-blend-mode: normal"><g transform="translate(-0.00204,0.06144) scale(2.56881,2.56881)"><g transform="translate(-8.74004,85.05859)"><path d="M58.5449,14.5508c27.2461,0 49.8051,-22.60744 49.8051,-49.8047c0,-27.2461 -22.6078,-49.8047 -49.8539,-49.8047c-27.1973,0 -49.75587,22.5586 -49.75587,49.8047c0,27.19726 22.60747,49.8047 49.80467,49.8047zM58.5449,6.25c-23.0469,0 -41.4551,-18.457 -41.4551,-41.5039c0,-23.0469 18.3594,-41.5039 41.4063,-41.5039c23.0469,0 41.5039,18.457 41.5529,41.5039c0.049,23.0469 -18.4572,41.5039 -41.5041,41.5039zM57.5195,-25.1465c2.4414,0 3.9551,-1.5625 3.9551,-3.4668v-0.5859c0,-2.7344 1.5625,-4.4922 4.9805,-6.7383c4.7363,-3.125 8.1054,-5.957 8.1054,-11.8164c0,-8.1055 -7.2265,-12.5 -15.5273,-12.5c-8.3984,0 -13.916,4.0039 -15.2344,8.4961c-0.2441,0.7812 -0.4394,1.6113 -0.4394,2.3926c0,2.1972 1.7578,3.3691 3.3691,3.3691c2.7832,0 3.2227,-1.4648 4.7852,-3.3203c1.6113,-2.6856 3.9551,-4.2969 7.2265,-4.2969c4.4434,0 7.3243,2.5391 7.3243,6.25c0,3.3203 -2.0508,4.9317 -6.2989,7.9102c-3.5156,2.4414 -6.1523,5.0293 -6.1523,9.8144v0.6348c0,2.5391 1.416,3.8574 3.9062,3.8574zM57.4219,-10.5957c2.832,0 5.2734,-2.2461 5.2734,-5.0781c0,-2.8321 -2.3926,-5.0782 -5.2734,-5.0782c-2.8809,0 -5.2735,2.295 -5.2735,5.0782c0,2.7832 2.4414,5.0781 5.2735,5.0781z"></path></g></g></g></svg>