<svg viewBox="0 0 99.6099853515625 99.6572265625" version="1.1" xmlns="http://www.w3.org/2000/svg" class="sc-iyp18k-0 bmhQzV glyph-box" style="height: 14.1438px; width: 14.1371px;"><g transform="matrix(1 0 0 1 -8.740039062500045 85.05859375)"><path d="M58.5449 14.5508C85.791 14.5508 108.35-8.05664 108.35-35.2539C108.35-62.5 85.7422-85.0586 58.4961-85.0586C31.2988-85.0586 8.74023-62.5 8.74023-35.2539C8.74023-8.05664 31.3477 14.5508 58.5449 14.5508ZM58.5449 6.25C35.498 6.25 17.0898-12.207 17.0898-35.2539C17.0898-58.3008 35.4492-76.7578 58.4961-76.7578C81.543-76.7578 100-58.3008 100.049-35.2539C100.098-12.207 81.5918 6.25 58.5449 6.25ZM57.5195-25.1465C59.9609-25.1465 61.4746-26.709 61.4746-28.6133L61.4746-29.1992C61.4746-31.9336 63.0371-33.6914 66.4551-35.9375C71.1914-39.0625 74.5605-41.8945 74.5605-47.7539C74.5605-55.8594 67.334-60.2539 59.0332-60.2539C50.6348-60.2539 45.1172-56.25 43.7988-51.7578C43.5547-50.9766 43.3594-50.1465 43.3594-49.3652C43.3594-47.168 45.1172-45.9961 46.7285-45.9961C49.5117-45.9961 49.9512-47.4609 51.5137-49.3164C53.125-52.002 55.4688-53.6133 58.7402-53.6133C63.1836-53.6133 66.0645-51.0742 66.0645-47.3633C66.0645-44.043 64.0137-42.4316 59.7656-39.4531C56.25-37.0117 53.6133-34.4238 53.6133-29.6387L53.6133-29.0039C53.6133-26.4648 55.0293-25.1465 57.5195-25.1465ZM57.4219-10.5957C60.2539-10.5957 62.6953-12.8418 62.6953-15.6738C62.6953-18.5059 60.3027-20.752 57.4219-20.752C54.541-20.752 52.1484-18.457 52.1484-15.6738C52.1484-12.8906 54.5898-10.5957 57.4219-10.5957Z"></path></g></svg>